<?xml version="1.0" encoding="UTF-8" standalone="no"?>
<!-- Svg Vector Icons : http://www.onlinewebfonts.com/icon -->

<svg
   version="1.1"
   x="0px"
   y="0px"
   viewBox="0 0 1000 1000"
   enable-background="new 0 0 1000 1000"
   xml:space="preserve"
   id="svg88"
   sodipodi:docname="20abd899ed40c87f30657e4369bb656b.svg"
   inkscape:version="1.2.2 (732a01da63, 2022-12-09)"
   xmlns:inkscape="http://www.inkscape.org/namespaces/inkscape"
   xmlns:sodipodi="http://sodipodi.sourceforge.net/DTD/sodipodi-0.dtd"
   xmlns="http://www.w3.org/2000/svg"
   xmlns:svg="http://www.w3.org/2000/svg"><defs
   id="defs92" /><sodipodi:namedview
   id="namedview90"
   pagecolor="#505050"
   bordercolor="#eeeeee"
   borderopacity="1"
   inkscape:showpageshadow="0"
   inkscape:pageopacity="0"
   inkscape:pagecheckerboard="0"
   inkscape:deskcolor="#505050"
   showgrid="false"
   inkscape:zoom="0.4185"
   inkscape:cx="114.69534"
   inkscape:cy="599.76105"
   inkscape:window-width="1920"
   inkscape:window-height="1017"
   inkscape:window-x="1912"
   inkscape:window-y="-8"
   inkscape:window-maximized="1"
   inkscape:current-layer="svg88" />
<metadata
   id="metadata48"> Svg Vector Icons : http://www.onlinewebfonts.com/icon </metadata>
<g
   id="g86"
   style="fill:#ffffff"><g
     id="g54"
     style="fill:#ffffff"><g
       id="g52"
       style="fill:#ffffff"><path
         d="M810.9,473.5l-38.7-153.9c0,0-2.4-12.4-14.2-19.4c-11.8-7-130.9-77.9-130.9-77.9c-5.1-3.1-10.6-4.8-16.2-5.5c-1.1-0.2-2.3-0.4-3.5-0.4h-18.3c0.1-0.3,0.3-0.6,0.6-0.9c14.6-16.8,23.5-38.8,23.5-62.8c0-32.4-16.1-60.9-40.7-78.3c-1.8-1.3-3-4-2.7-6.2c0.2-1.8,0.3-3.7,0.3-5.6c0-29-23.5-52.6-52.6-52.6c-29,0-52.6,23.5-52.6,52.6c0,1.9,0.1,3.7,0.3,5.6c0.2,2.2-0.9,4.9-2.7,6.2c-24.6,17.3-40.7,45.9-40.7,78.3c0,24,8.9,46,23.5,62.8c0.3,0.3,0.4,0.6,0.6,0.9h-25.3c-3.1,0-5.9,0.9-8.3,2.3c-2.7,0.9-5.2,2.1-7.7,3.6l-5.5,3.3l-85.6,50.9c0,0-35.4,20.7-42.7,25.4c-8.4,5.4-10.6,14.9-10.6,14.9l-31.4,124.9c-20.2,9.2-29.5,24.5-29.5,24.5c-11.6,18-11.4,39.5-11.4,39.5v460.4c0,0,0.6,18.3,20.1,18.3c19.5,0,21-16.8,21-16.8s0.3-450.6,0.8-456.1c0-0.2,0-0.3,0-0.5c5.4,6.4,12.8,11.2,21.5,13.4c3.4,0.9,6.9,1.3,10.3,1.3c18.2,0,34.6-11.9,40-29.9c1.6,4.4,2.7,11.6,4.7,22.5c3,16.2,39.4,21.7,38.5-6.9c-0.9-28.6-11.1-40.3-24-57.5c-1.7-2.2-3.8-4.3-6.3-6.2c-0.2-0.1-0.3-0.3-0.4-0.4l20.4-81l1.3-5.3l2.8-1.6l49.8-29.7l-11.6,71.3l-16.8,103l-39.7,243.7c0,9.3,7.5,16.8,16.8,16.8h53.2h6.9v183.7c0,6.5,1.6,12.5,4.2,18c6.8,14.1,21,23.9,37.7,23.9c18.9,0,34.8-12.6,40-29.9c1.2-3.8,2-7.8,2-12.1V764.4h68.2v183.7c0,0.5,0.1,0.9,0.1,1.4C550,972,568.4,990,591,990c14.1,0,26.6-7,34.2-17.7c4.9-6.8,7.8-15.2,7.8-24.2V764.4h10.5h50c9.3,0,16.8-7.5,16.8-16.8L685.9,602L640,327.5l56.1,33.4l33.5,133c2.9,11.6,10.5,20.8,20.2,26.3c6.2,3.5,13.2,5.4,20.5,5.4c3.4,0,6.8-0.4,10.3-1.3C803,518.8,816.6,496,810.9,473.5z"
         id="path50"
         style="fill:#ffffff" /></g></g><g
     id="g56"
     style="fill:#ffffff" /><g
     id="g58"
     style="fill:#ffffff" /><g
     id="g60"
     style="fill:#ffffff" /><g
     id="g62"
     style="fill:#ffffff" /><g
     id="g64"
     style="fill:#ffffff" /><g
     id="g66"
     style="fill:#ffffff" /><g
     id="g68"
     style="fill:#ffffff" /><g
     id="g70"
     style="fill:#ffffff" /><g
     id="g72"
     style="fill:#ffffff" /><g
     id="g74"
     style="fill:#ffffff" /><g
     id="g76"
     style="fill:#ffffff" /><g
     id="g78"
     style="fill:#ffffff" /><g
     id="g80"
     style="fill:#ffffff" /><g
     id="g82"
     style="fill:#ffffff" /><g
     id="g84"
     style="fill:#ffffff" /></g>
</svg>
